#!OML:ASF I:\Random Stuff\random\construction\7_22_03\Session 2\subj1.ASF
:FULLY-SPECIFIED
:DEGREES
1011
root -11.842 17.7919 -5.87159 -357.56 83.1684 -395.872
lowerback 31.648 3.51714 -5.00734
upperback 9.87441 3.74495 0.343996
thorax -6.34902 2.04832 1.89857
lowerneck -10.9169 -1.69023 -2.25405
upperneck 24.5248 -1.82796 1.92612
head 9.57402 -0.695423 0.867473
rclavicle -8.74653e-015 -1.90336e-014
rhumerus -6.82017 26.4997 -74.9141
rradius 104.374
rwrist 2.746
rhand -33.3364 24.3272
rfingers 7.12502
rthumb -6.53896 -5.55186
lclavicle -8.74653e-015 -1.90336e-014
lhumerus 17.3802 -8.61036 55.5297
lradius 89.4109
lwrist 1.69939
lhand -35.4724 78.7379
lfingers 7.12502
lthumb -8.6007 251.457
rfemur -47.4013 4.45107 15.8795
rtibia 14.3502
rfoot -2.38813 -11.5215
rtoes -22.3712
lfemur -54.8367 -7.72657 -1.09162
ltibia 26.7069
lfoot -17.3376 13.7676
ltoes -20.442
1012
root -11.8385 17.7924 -5.86536 -358.268 83.3501 -396.497
lowerback 31.7223 3.47128 -4.94331
upperback 9.86809 3.70866 0.375216
thorax -6.3867 2.03306 1.90668
lowerneck -10.8786 -1.71266 -2.32675
upperneck 24.4594 -1.89074 2.10667
head 9.54756 -0.712341 0.935022
rclavicle 3.36443e-014 6.95746e-015
rhumerus -7.02798 25.9613 -75.2419
rradius 104.378
rwrist 0.675777
rhand -34.6583 22.8491
rfingers 7.12502
rthumb -7.81499 -6.98648
lclavicle 3.36443e-014 6.95746e-015
lhumerus 17.4126 -8.64824 55.5755
lradius 89.4012
lwrist 1.4863
lhand -35.2866 78.6389
lfingers 7.12502
lthumb -8.42137 251.549
rfemur -47.341 4.38981 15.9016
rtibia 14.5315
rfoot -2.52657 -11.6981
rtoes -22.0845
lfemur -54.7735 -7.7858 -1.11177
ltibia 26.6633
lfoot -17.3252 13.6619
ltoes -20.5545
1013
root -11.8358 17.7911 -5.8611 -359.201 83.5056 -397.407
lowerback 31.7427 3.40578 -4.85255
upperback 9.84555 3.6556 0.403569
thorax -6.41618 2.00921 1.90425
lowerneck -10.8838 -1.74816 -2.36208
upperneck 24.4468 -1.96236 2.22533
head 9.54752 -0.735952 0.973866
rclavicle -1.49585e-014 -2.47735e-014
rhumerus -7.29627 25.4196 -75.6294
rradius 104.413
rwrist -0.957599
rhand -36.375 21.1948
rfingers 7.12502
rthumb -9.47163 -8.57235
lclavicle -1.49585e-014 -2.47735e-014
lhumerus 17.3846 -8.70043 55.6285
lradius 89.4852
lwrist 1.59105
lhand -35.2285 78.4795
lfingers 7.12502
lthumb -8.36525 251.706
rfemur -47.3303 4.15416 16.0992
rtibia 14.6611
rfoot -2.6614 -11.5887
rtoes -21.6091
lfemur -54.7901 -7.84886 -1.05415
ltibia 26.6513
lfoot -17.3112 13.57
ltoes -20.4578
1014
root -11.8334 17.789 -5.85957 -359.676 83.5862 -397.879
lowerback 31.7373 3.36631 -4.79787
upperback 9.82897 3.62253 0.406094
thorax -6.42841 1.99423 1.8875
lowerneck -10.9287 -1.79163 -2.30267
upperneck 24.4671 -2.02329 2.1808
head 9.56371 -0.762973 0.941308
rclavicle 3.87879e-014 3.54955e-014
rhumerus -7.53537 24.8335 -75.9368
rradius 104.618
rwrist -2.12465
rhand -33.6551 23.9964
rfingers 7.12502
rthumb -6.84659 -5.87289
lclavicle 3.87879e-014 3.54955e-014
lhumerus 17.4961 -8.86944 55.6962
lradius 89.5541
lwrist 1.67327
lhand -35.5339 77.8229
lfingers 7.12502
lthumb -8.66002 252.375
rfemur -47.3321 3.91788 16.2942
rtibia 14.7245
rfoot -2.72439 -11.394
rtoes -21.4564
lfemur -54.823 -7.88348 -1.02669
ltibia 26.6734
lfoot -17.3643 13.5587
ltoes -20.6418
1015
root -11.8299 17.7856 -5.85847 -359.738 83.6151 -397.925
lowerback 31.7139 3.34249 -4.85674
upperback 9.83423 3.58012 0.427962
thorax -6.41253 1.97393 1.96256
lowerneck -11.0216 -1.79475 -2.32664
upperneck 24.515 -2.0021 2.09983
head 9.59742 -0.763644 0.91947
rclavicle -1.74682e-014 -4.78698e-014
rhumerus -7.69456 25.1079 -75.9765
rradius 104.293
rwrist 2.15939
rhand -34.8988 23.3603
rfingers 7.12502
rthumb -8.04706 -6.46653
lclavicle -1.74682e-014 -4.78698e-014
lhumerus 17.6319 -8.90094 55.8709
lradius 89.4748
lwrist 1.04416
lhand -35.9347 77.2467
lfingers 7.12502
lthumb -9.04678 252.967
rfemur -47.3314 3.83012 16.3639
rtibia 14.774
rfoot -2.71418 -11.3556
rtoes -22.0362
lfemur -54.8406 -8.04069 -0.913684
ltibia 26.7219
lfoot -17.5144 13.7416
ltoes -20.6585
1016
root -11.8259 17.7825 -5.85712 -360.073 83.6342 -398.193
lowerback 31.7457 3.31134 -4.92847
upperback 9.84202 3.5254 0.474896
thorax -6.41985 1.94814 2.07552
lowerneck -11.0523 -1.77904 -2.46106
upperneck 24.5346 -1.95194 2.09781
head 9.61062 -0.753097 0.947276
rclavicle 3.10898e-014 -2.70836e-014
rhumerus -7.67795 25.8085 -75.7345
rradius 103.763
rwrist 6.53778
rhand -36.0065 23.2582
rfingers 7.12502
rthumb -9.11609 -6.52481
lclavicle 3.10898e-014 -2.70836e-014
lhumerus 17.583 -8.70202 56.1312
lradius 89.4565
lwrist 0.404836
lhand -35.7898 77.4817
lfingers 7.12502
lthumb -8.90693 252.726
rfemur -47.2727 3.79543 16.4291
rtibia 14.8253
rfoot -2.73391 -11.3357
rtoes -22.4708
lfemur -54.7749 -8.11379 -0.871828
ltibia 26.7832
lfoot -17.6669 13.7829
ltoes -20.3661
1017
root -11.8207 17.7816 -5.85637 -360.376 83.6245 -398.368
lowerback 31.8525 3.27448 -5.01956
upperback 9.86157 3.45543 0.512923
thorax -6.44619 1.91606 2.19281
lowerneck -10.9673 -1.74513 -2.52534
upperneck 24.4163 -1.8761 2.01204
head 9.55055 -0.735288 0.93675
rclavicle -5.32494e-014 -4.92613e-015
rhumerus -7.60521 27.0732 -75.4353
rradius 103.487
rwrist 6.6381
rhand -35.6508 24.9194
rfingers 7.12502
rthumb -8.77285 -4.87826
lclavicle -5.32494e-014 -4.92613e-015
lhumerus 17.3464 -8.30207 56.4103
lradius 89.5019
lwrist 0.0830259
lhand -35.3834 77.846
lfingers 7.12502
lthumb -8.51479 252.346
rfemur -47.1346 3.78027 16.4898
rtibia 14.8694
rfoot -2.80502 -11.3072
rtoes -22.2025
lfemur -54.5911 -7.91925 -1.11398
ltibia 26.8604
lfoot -17.7819 13.538
ltoes -20.1332
1018
root -11.815 17.7821 -5.85566 -360.473 83.5766 -398.323
lowerback 31.9775 3.23867 -5.1335
upperback 9.89121 3.3768 0.51528
thorax -6.46653 1.88033 2.28625
lowerneck -10.8778 -1.70643 -2.52862
upperneck 24.2253 -1.80864 1.91883
head 9.46349 -0.717616 0.911839
rclavicle -2.73329e-015 5.81445e-015
rhumerus -7.49563 28.5216 -75.1348
rradius 103.228
rwrist 6.16889
rhand -35.3777 26.6851
rfingers 7.12502
rthumb -8.50932 -3.12345
lclavicle -2.73329e-015 5.81445e-015
lhumerus 17.0304 -7.90187 56.5311
lradius 89.508
lwrist -0.20089
lhand -35.2226 77.9244
lfingers 7.12502
lthumb -8.35956 252.261
rfemur -46.9832 3.76475 16.5676
rtibia 14.919
rfoot -2.86833 -11.263
rtoes -21.9501
lfemur -54.4097 -7.78013 -1.30317
ltibia 26.956
lfoot -17.8968 13.396
ltoes -19.7653
1019
root -11.8106 17.7821 -5.85418 -360.426 83.5003 -398.18
lowerback 32.0291 3.23018 -5.12381
upperback 9.92032 3.36088 0.410578
thorax -6.44817 1.87463 2.16773
lowerneck -10.8857 -1.77492 -2.55752
upperneck 24.1111 -1.95741 2.14247
head 9.43099 -0.766814 0.976304
rclavicle -1.75924e-014 -3.14825e-014
rhumerus -7.49657 29.6956 -74.9834
rradius 102.991
rwrist 6.05971
rhand -35.4375 28.4053
rfingers 7.12502
rthumb -8.56697 -1.40088
lclavicle -1.75924e-014 -3.14825e-014
lhumerus 16.8923 -7.8447 56.3383
lradius 89.5628
lwrist -0.203463
lhand -34.9974 77.8191
lfingers 7.12502
lthumb -8.14224 252.358
rfemur -46.901 3.64601 16.7585
rtibia 14.9712
rfoot -2.91982 -11.0443
rtoes -21.9942
lfemur -54.3218 -7.62098 -1.44048
ltibia 27.0702
lfoot -17.9383 13.2788
ltoes -19.5652
1020
root -11.8072 17.782 -5.84875 -360.267 83.4089 -397.907
lowerback 32.0522 3.25499 -5.16668
upperback 9.97855 3.37464 0.296943
thorax -6.38699 1.8825 2.06037
lowerneck -10.9083 -1.90368 -2.6252
upperneck 23.9482 -2.2009 2.44275
head 9.3887 -0.855763 1.0626
rclavicle 2.88238e-015 -1.7667e-014
rhumerus -7.44545 30.1194 -74.8461
rradius 103.017
rwrist 7.67485
rhand -34.6569 29.1422
rfingers 7.12502
rthumb -7.81363 -0.693412
lclavicle 2.88238e-015 -1.7667e-014
lhumerus 16.8551 -7.88184 56.0043
lradius 89.6133
lwrist -0.00589647
lhand -34.8415 77.8288
lfingers 7.12502
lthumb -7.99177 252.342
rfemur -46.7914 3.49717 16.9931
rtibia 14.9975
rfoot -2.98341 -10.7679
rtoes -22.0454
lfemur -54.2134 -7.16443 -1.82106
ltibia 27.2206
lfoot -17.8727 12.8231
ltoes -19.762
1021
root -11.803 17.7837 -5.83814 -359.963 83.2859 -397.362
lowerback 32.5631 3.3903 -5.36291
upperback 9.66081 3.43839 0.300213
thorax -6.31072 1.91108 1.95073
lowerneck -10.8777 -2.05928 -2.62955
upperneck 23.7085 -2.47585 2.66314
head 9.30968 -0.963433 1.10682
rclavicle -4.1546e-014 -3.1085e-014
rhumerus -7.43181 30.5253 -74.7567
rradius 103.023
rwrist 8.41646
rhand -34.3218 30.2669
rfingers 7.12502
rthumb -7.49017 0.419514
lclavicle -4.1546e-014 -3.1085e-014
lhumerus 16.9483 -7.99642 55.6611
lradius 89.6131
lwrist 0.180018
lhand -34.9649 78.0012
lfingers 7.12502
lthumb -8.11087 252.174
rfemur -46.5386 3.44261 17.1656
rtibia 15.037
rfoot -3.11823 -10.5572
rtoes -22.0302
lfemur -53.9418 -6.65316 -2.28456
ltibia 27.3996
lfoot -17.814 12.2348
ltoes -19.7256
1022
root -11.7984 17.7855 -5.82643 -359.86 83.0976 -396.94
lowerback 32.8147 3.54018 -5.54668
upperback 9.72582 3.5553 0.208223
thorax -6.34035 1.96941 1.9006
lowerneck -10.7986 -2.21818 -2.6676
upperneck 23.5443 -2.7638 2.96754
head 9.25103 -1.07054 1.18511
rclavicle 6.17226e-014 1.34677e-014
rhumerus -7.36583 30.8374 -74.6568
rradius 102.948
rwrist 8.70572
rhand -34.0637 31.4338
rfingers 7.12502
rthumb -7.24102 1.57766
lclavicle 6.17226e-014 1.34677e-014
lhumerus 17.1495 -8.15853 55.3795
lradius 89.6037
lwrist 0.249714
lhand -35.0461 77.9036
lfingers 7.12502
lthumb -8.18927 252.275
rfemur -46.2113 3.51317 17.3041
rtibia 15.0874
rfoot -3.29787 -10.3949
rtoes -21.8239
lfemur -53.5721 -6.09325 -2.7443
ltibia 27.6125
lfoot -17.7782 11.648
ltoes -19.4802
1023
root -11.7982 17.7843 -5.8132 -359.871 83.0256 -396.831
lowerback 32.8183 3.62642 -5.72249
upperback 9.74525 3.6052 0.150952
thorax -6.32464 1.99319 1.91568
lowerneck -10.7294 -2.33988 -2.72378
upperneck 23.4916 -2.98509 3.23945
head 9.23197 -1.15033 1.26349
rclavicle 2.45499e-014 4.96962e-017
rhumerus -7.18207 31.0206 -74.5314
rradius 102.81
rwrist 9.0227
rhand -33.7746 32.2283
rfingers 7.12502
rthumb -6.96204 2.36276
lclavicle 2.45499e-014 4.96962e-017
lhumerus 17.3041 -8.23837 55.2096
lradius 89.5734
lwrist 0.217001
lhand -35.1791 77.5834
lfingers 7.12502
lthumb -8.31763 252.6
rfemur -46.1096 3.69139 17.2921
rtibia 15.1554
rfoot -3.36826 -10.5002
rtoes -21.7869
lfemur -53.4851 -5.34949 -3.30782
ltibia 27.8546
lfoot -17.6944 10.8277
ltoes -19.3316
1024
root -11.7996 17.7818 -5.80216 -359.939 82.9046 -396.761
lowerback 32.8297 3.73515 -5.93447
upperback 9.76171 3.67354 0.132925
thorax -6.32043 2.02443 1.98367
lowerneck -10.6653 -2.42824 -2.73894
upperneck 23.4839 -3.12403 3.32845
head 9.22374 -1.20684 1.28165
rclavicle 4.01545e-014 3.68746e-014
rhumerus -6.97474 31.063 -74.4024
rradius 102.687
rwrist 9.30402
rhand -33.6561 32.483
rfingers 7.12502
rthumb -6.84755 2.61373
lclavicle 4.01545e-014 3.68746e-014
lhumerus 17.3544 -8.25128 55.1767
lradius 89.587
lwrist 0.065751
lhand -35.223 77.4247
lfingers 7.12502
lthumb -8.36002 252.761
rfemur -46.0281 3.74882 17.4146
rtibia 15.2639
rfoot -3.4192 -10.3811
rtoes -22.2445
lfemur -53.4075 -4.63422 -3.79557
ltibia 28.1354
lfoot -17.6638 10.0241
ltoes -19.1589
